  0
SECTION
  2
BLOCKS
  0
ENDSEC
  0
SECTION
  2
ENTITIES
  0
LINE
  8
0
 10
-35.900000
 11
-30.430000
 20
-12.100000
 21
-6.630000
  0
LINE
  8
0
 10
-30.430000
 11
-26.188000
 20
-6.630000
 21
-10.873000
  0
LINE
  8
0
 10
-26.188000
 11
-25.127000
 20
-10.873000
 21
-9.812000
  0
LINE
  8
0
 10
-25.127000
 11
-29.370000
 20
-9.812000
 21
-5.570000
  0
LINE
  8
0
 10
-29.370000
 11
-23.900000
 20
-5.570000
 21
-0.100000
  0
LINE
  8
0
 10
-23.900000
 11
-18.650000
 20
-0.100000
 21
-0.100000
  0
LINE
  8
0
 10
-18.650000
 11
-18.650000
 20
-0.100000
 21
-6.100000
  0
LINE
  8
0
 10
-18.650000
 11
-17.150000
 20
-6.100000
 21
-6.100000
  0
LINE
  8
0
 10
-17.150000
 11
-17.150000
 20
-6.100000
 21
-0.100000
  0
LINE
  8
0
 10
-17.150000
 11
-11.900000
 20
-0.100000
 21
-0.100000
  0
LINE
  8
0
 10
-11.900000
 11
-6.430000
 20
-0.100000
 21
-5.570000
  0
LINE
  8
0
 10
-6.430000
 11
-10.673000
 20
-5.570000
 21
-9.812000
  0
LINE
  8
0
 10
-10.673000
 11
-9.612000
 20
-9.812000
 21
-10.873000
  0
LINE
  8
0
 10
-9.612000
 11
-5.370000
 20
-10.873000
 21
-6.630000
  0
LINE
  8
0
 10
-5.370000
 11
0.100000
 20
-6.630000
 21
-12.100000
  0
LINE
  8
0
 10
0.100000
 11
-11.150000
 20
-12.100000
 21
-12.100000
  0
LINE
  8
0
 10
-11.150000
 11
-11.150000
 20
-12.100000
 21
-6.100000
  0
LINE
  8
0
 10
-11.150000
 11
-12.650000
 20
-6.100000
 21
-6.100000
  0
LINE
  8
0
 10
-12.650000
 11
-12.650000
 20
-6.100000
 21
-12.100000
  0
LINE
  8
0
 10
-12.650000
 11
-23.150000
 20
-12.100000
 21
-12.100000
  0
LINE
  8
0
 10
-23.150000
 11
-23.150000
 20
-12.100000
 21
-6.100000
  0
LINE
  8
0
 10
-23.150000
 11
-24.650000
 20
-6.100000
 21
-6.100000
  0
LINE
  8
0
 10
-24.650000
 11
-24.650000
 20
-6.100000
 21
-12.100000
  0
LINE
  8
0
 10
-24.650000
 11
-35.900000
 20
-12.100000
 21
-12.100000
  0
LINE
  8
0
 10
-35.900000
 11
-24.650000
 20
12.100000
 21
12.100000
  0
LINE
  8
0
 10
-24.650000
 11
-24.650000
 20
12.100000
 21
6.100000
  0
LINE
  8
0
 10
-24.650000
 11
-23.150000
 20
6.100000
 21
6.100000
  0
LINE
  8
0
 10
-23.150000
 11
-23.150000
 20
6.100000
 21
12.100000
  0
LINE
  8
0
 10
-23.150000
 11
-12.650000
 20
12.100000
 21
12.100000
  0
LINE
  8
0
 10
-12.650000
 11
-12.650000
 20
12.100000
 21
6.100000
  0
LINE
  8
0
 10
-12.650000
 11
-11.150000
 20
6.100000
 21
6.100000
  0
LINE
  8
0
 10
-11.150000
 11
-11.150000
 20
6.100000
 21
12.100000
  0
LINE
  8
0
 10
-11.150000
 11
0.100000
 20
12.100000
 21
12.100000
  0
LINE
  8
0
 10
0.100000
 11
-5.370000
 20
12.100000
 21
6.630000
  0
LINE
  8
0
 10
-5.370000
 11
-9.612000
 20
6.630000
 21
10.873000
  0
LINE
  8
0
 10
-9.612000
 11
-10.673000
 20
10.873000
 21
9.812000
  0
LINE
  8
0
 10
-10.673000
 11
-6.430000
 20
9.812000
 21
5.570000
  0
LINE
  8
0
 10
-6.430000
 11
-11.900000
 20
5.570000
 21
0.100000
  0
LINE
  8
0
 10
-11.900000
 11
-17.150000
 20
0.100000
 21
0.100000
  0
LINE
  8
0
 10
-17.150000
 11
-17.150000
 20
0.100000
 21
6.100000
  0
LINE
  8
0
 10
-17.150000
 11
-18.650000
 20
6.100000
 21
6.100000
  0
LINE
  8
0
 10
-18.650000
 11
-18.650000
 20
6.100000
 21
0.100000
  0
LINE
  8
0
 10
-18.650000
 11
-23.900000
 20
0.100000
 21
0.100000
  0
LINE
  8
0
 10
-23.900000
 11
-29.370000
 20
0.100000
 21
5.570000
  0
LINE
  8
0
 10
-29.370000
 11
-25.127000
 20
5.570000
 21
9.812000
  0
LINE
  8
0
 10
-25.127000
 11
-26.188000
 20
9.812000
 21
10.873000
  0
LINE
  8
0
 10
-26.188000
 11
-30.430000
 20
10.873000
 21
6.630000
  0
LINE
  8
0
 10
-30.430000
 11
-35.900000
 20
6.630000
 21
12.100000
  0
LINE
  8
0
 10
-8.428000
 11
-8.428000
 20
-0.985000
 21
-0.750000
  0
LINE
  8
0
 10
-8.428000
 11
-2.485000
 20
-0.750000
 21
-0.750000
  0
LINE
  8
0
 10
-2.485000
 11
-2.485000
 20
-0.750000
 21
0.750000
  0
LINE
  8
0
 10
-2.485000
 11
-8.428000
 20
0.750000
 21
0.750000
  0
LINE
  8
0
 10
-8.428000
 11
-8.428000
 20
0.750000
 21
0.985000
  0
LINE
  8
0
 10
-8.428000
 11
-7.974000
 20
0.985000
 21
2.902000
  0
LINE
  8
0
 10
-7.974000
 11
-7.089000
 20
2.902000
 21
4.663000
  0
LINE
  8
0
 10
-7.089000
 11
-5.823000
 20
4.663000
 21
6.172000
  0
LINE
  8
0
 10
-5.823000
 11
-4.243000
 20
6.172000
 21
7.348000
  0
LINE
  8
0
 10
-4.243000
 11
-2.434000
 20
7.348000
 21
8.129000
  0
LINE
  8
0
 10
-2.434000
 11
-0.750000
 20
8.129000
 21
8.426000
  0
LINE
  8
0
 10
-0.750000
 11
-0.750000
 20
8.426000
 21
2.485000
  0
LINE
  8
0
 10
-0.750000
 11
0.750000
 20
2.485000
 21
2.485000
  0
LINE
  8
0
 10
0.750000
 11
0.750000
 20
2.485000
 21
8.398000
  0
LINE
  8
0
 10
0.750000
 11
1.473000
 20
8.398000
 21
8.356000
  0
LINE
  8
0
 10
1.473000
 11
3.361000
 20
8.356000
 21
7.791000
  0
LINE
  8
0
 10
3.361000
 11
5.067000
 20
7.791000
 21
6.806000
  0
LINE
  8
0
 10
5.067000
 11
6.500000
 20
6.806000
 21
5.454000
  0
LINE
  8
0
 10
6.500000
 11
7.583000
 20
5.454000
 21
3.808000
  0
LINE
  8
0
 10
7.583000
 11
8.257000
 20
3.808000
 21
1.957000
  0
LINE
  8
0
 10
8.257000
 11
8.398000
 20
1.957000
 21
0.750000
  0
LINE
  8
0
 10
8.398000
 11
2.485000
 20
0.750000
 21
0.750000
  0
LINE
  8
0
 10
2.485000
 11
2.485000
 20
0.750000
 21
-0.750000
  0
LINE
  8
0
 10
2.485000
 11
8.398000
 20
-0.750000
 21
-0.750000
  0
LINE
  8
0
 10
8.398000
 11
8.257000
 20
-0.750000
 21
-1.957000
  0
LINE
  8
0
 10
8.257000
 11
7.583000
 20
-1.957000
 21
-3.808000
  0
LINE
  8
0
 10
7.583000
 11
6.500000
 20
-3.808000
 21
-5.454000
  0
LINE
  8
0
 10
6.500000
 11
5.067000
 20
-5.454000
 21
-6.806000
  0
LINE
  8
0
 10
5.067000
 11
3.361000
 20
-6.806000
 21
-7.791000
  0
LINE
  8
0
 10
3.361000
 11
1.473000
 20
-7.791000
 21
-8.356000
  0
LINE
  8
0
 10
1.473000
 11
0.750000
 20
-8.356000
 21
-8.398000
  0
LINE
  8
0
 10
0.750000
 11
0.750000
 20
-8.398000
 21
-2.485000
  0
LINE
  8
0
 10
0.750000
 11
-0.750000
 20
-2.485000
 21
-2.485000
  0
LINE
  8
0
 10
-0.750000
 11
-0.750000
 20
-2.485000
 21
-8.426000
  0
LINE
  8
0
 10
-0.750000
 11
-2.434000
 20
-8.426000
 21
-8.129000
  0
LINE
  8
0
 10
-2.434000
 11
-4.243000
 20
-8.129000
 21
-7.348000
  0
LINE
  8
0
 10
-4.243000
 11
-5.823000
 20
-7.348000
 21
-6.172000
  0
LINE
  8
0
 10
-5.823000
 11
-7.089000
 20
-6.172000
 21
-4.663000
  0
LINE
  8
0
 10
-7.089000
 11
-7.974000
 20
-4.663000
 21
-2.902000
  0
LINE
  8
0
 10
-7.974000
 11
-8.428000
 20
-2.902000
 21
-0.985000
  0
LINE
  8
0
 10
0.100000
 11
5.570000
 20
-12.100000
 21
-6.630000
  0
LINE
  8
0
 10
5.570000
 11
9.812000
 20
-6.630000
 21
-10.873000
  0
LINE
  8
0
 10
9.812000
 11
10.873000
 20
-10.873000
 21
-9.812000
  0
LINE
  8
0
 10
10.873000
 11
6.630000
 20
-9.812000
 21
-5.570000
  0
LINE
  8
0
 10
6.630000
 11
12.100000
 20
-5.570000
 21
-0.100000
  0
LINE
  8
0
 10
12.100000
 11
17.350000
 20
-0.100000
 21
-0.100000
  0
LINE
  8
0
 10
17.350000
 11
17.350000
 20
-0.100000
 21
-6.100000
  0
LINE
  8
0
 10
17.350000
 11
18.850000
 20
-6.100000
 21
-6.100000
  0
LINE
  8
0
 10
18.850000
 11
18.850000
 20
-6.100000
 21
-0.100000
  0
LINE
  8
0
 10
18.850000
 11
24.100000
 20
-0.100000
 21
-0.100000
  0
LINE
  8
0
 10
24.100000
 11
29.570000
 20
-0.100000
 21
-5.570000
  0
LINE
  8
0
 10
29.570000
 11
25.327000
 20
-5.570000
 21
-9.812000
  0
LINE
  8
0
 10
25.327000
 11
26.388000
 20
-9.812000
 21
-10.873000
  0
LINE
  8
0
 10
26.388000
 11
30.630000
 20
-10.873000
 21
-6.630000
  0
LINE
  8
0
 10
30.630000
 11
36.100000
 20
-6.630000
 21
-12.100000
  0
LINE
  8
0
 10
36.100000
 11
24.850000
 20
-12.100000
 21
-12.100000
  0
LINE
  8
0
 10
24.850000
 11
24.850000
 20
-12.100000
 21
-6.100000
  0
LINE
  8
0
 10
24.850000
 11
23.350000
 20
-6.100000
 21
-6.100000
  0
LINE
  8
0
 10
23.350000
 11
23.350000
 20
-6.100000
 21
-12.100000
  0
LINE
  8
0
 10
23.350000
 11
12.850000
 20
-12.100000
 21
-12.100000
  0
LINE
  8
0
 10
12.850000
 11
12.850000
 20
-12.100000
 21
-6.100000
  0
LINE
  8
0
 10
12.850000
 11
11.350000
 20
-6.100000
 21
-6.100000
  0
LINE
  8
0
 10
11.350000
 11
11.350000
 20
-6.100000
 21
-12.100000
  0
LINE
  8
0
 10
11.350000
 11
0.100000
 20
-12.100000
 21
-12.100000
  0
LINE
  8
0
 10
0.100000
 11
11.350000
 20
12.100000
 21
12.100000
  0
LINE
  8
0
 10
11.350000
 11
11.350000
 20
12.100000
 21
6.100000
  0
LINE
  8
0
 10
11.350000
 11
12.850000
 20
6.100000
 21
6.100000
  0
LINE
  8
0
 10
12.850000
 11
12.850000
 20
6.100000
 21
12.100000
  0
LINE
  8
0
 10
12.850000
 11
23.350000
 20
12.100000
 21
12.100000
  0
LINE
  8
0
 10
23.350000
 11
23.350000
 20
12.100000
 21
6.100000
  0
LINE
  8
0
 10
23.350000
 11
24.850000
 20
6.100000
 21
6.100000
  0
LINE
  8
0
 10
24.850000
 11
24.850000
 20
6.100000
 21
12.100000
  0
LINE
  8
0
 10
24.850000
 11
36.100000
 20
12.100000
 21
12.100000
  0
LINE
  8
0
 10
36.100000
 11
30.630000
 20
12.100000
 21
6.630000
  0
LINE
  8
0
 10
30.630000
 11
26.388000
 20
6.630000
 21
10.873000
  0
LINE
  8
0
 10
26.388000
 11
25.327000
 20
10.873000
 21
9.812000
  0
LINE
  8
0
 10
25.327000
 11
29.570000
 20
9.812000
 21
5.570000
  0
LINE
  8
0
 10
29.570000
 11
24.100000
 20
5.570000
 21
0.100000
  0
LINE
  8
0
 10
24.100000
 11
18.850000
 20
0.100000
 21
0.100000
  0
LINE
  8
0
 10
18.850000
 11
18.850000
 20
0.100000
 21
6.100000
  0
LINE
  8
0
 10
18.850000
 11
17.350000
 20
6.100000
 21
6.100000
  0
LINE
  8
0
 10
17.350000
 11
17.350000
 20
6.100000
 21
0.100000
  0
LINE
  8
0
 10
17.350000
 11
12.100000
 20
0.100000
 21
0.100000
  0
LINE
  8
0
 10
12.100000
 11
6.630000
 20
0.100000
 21
5.570000
  0
LINE
  8
0
 10
6.630000
 11
10.873000
 20
5.570000
 21
9.812000
  0
LINE
  8
0
 10
10.873000
 11
9.812000
 20
9.812000
 21
10.873000
  0
LINE
  8
0
 10
9.812000
 11
5.570000
 20
10.873000
 21
6.630000
  0
LINE
  8
0
 10
5.570000
 11
0.100000
 20
6.630000
 21
12.100000
  0
ENDSEC
  0
SECTION
  2
OBJECTS
  0
DICTIONARY
  0
ENDSEC
  0
EOF
